<?xml version="1.0" standalone="no"?>
<!DOCTYPE svg PUBLIC "-//W3C//DTD SVG 20010904//EN"
 "http://www.w3.org/TR/2001/REC-SVG-20010904/DTD/svg10.dtd">
<svg version="1.0" xmlns="http://www.w3.org/2000/svg"
 width="260.000000pt" height="260.000000pt" viewBox="0 0 260.000000 260.000000"
 preserveAspectRatio="xMidYMid meet">
<metadata>
Created by potrace 1.11, written by Peter Selinger 2001-2013
</metadata>
<g transform="translate(0.000000,260.000000) scale(0.100000,-0.100000)"
fill="#000000" stroke="none">
<path d="M0 1300 l0 -1300 1300 0 1300 0 0 1300 0 1300 -1300 0 -1300 0 0
-1300z m2100 570 c46 -11 116 -36 155 -55 69 -33 155 -91 155 -103 0 -4 -17
-27 -38 -51 l-38 -44 -75 50 c-91 59 -178 89 -303 104 -205 24 -331 -32 -331
-146 0 -94 48 -123 382 -234 249 -82 329 -119 389 -183 69 -72 90 -169 60
-272 -31 -104 -116 -173 -271 -218 -70 -20 -101 -23 -255 -22 -183 1 -240 10
-381 63 -57 22 -180 98 -186 116 -1 6 14 30 35 54 l38 44 45 -30 c131 -90 250
-125 429 -126 155 -1 223 16 268 68 57 64 54 137 -7 195 -43 41 -108 68 -351
145 -353 113 -445 187 -444 360 1 138 81 231 248 285 109 35 333 35 476 0z
m-1205 -24 c136 -38 228 -108 253 -194 32 -106 -1 -225 -78 -281 -23 -17 -51
-33 -61 -36 -27 -9 -23 -22 9 -28 48 -11 131 -66 162 -108 54 -76 62 -193 18
-286 -24 -51 -85 -108 -142 -134 -111 -49 -141 -52 -543 -56 l-383 -5 0 577 0
577 353 -5 c290 -3 363 -7 412 -21z"/>
<path d="M360 1556 l0 -186 188 0 c221 0 273 10 321 65 34 39 46 84 39 154 -6
59 -35 102 -85 127 -33 16 -67 19 -250 22 l-213 3 0 -185z"/>
<path d="M368 1244 c-5 -4 -8 -94 -8 -201 l0 -193 223 0 c125 0 239 5 260 11
58 16 112 70 126 126 19 75 -1 153 -51 200 -52 49 -89 56 -323 61 -121 2 -223
1 -227 -4z"/>
</g>
</svg>
